<mxfile modified="2019-11-12T09:39:51.408Z" host="www.draw.io" agent="Mozilla/5.0 (Windows NT 10.0; Win64; x64) AppleWebKit/537.36 (KHTML, like Gecko) Chrome/69.0.3497.100 Safari/537.36" etag="qU_xfza9-xTRlbJyfCir" version="12.2.3" type="github" pages="3">
  <diagram id="2FH1oBRZPqTbDsNVQS-m" name="Page-1">
    <mxGraphModel dx="1662" dy="794" grid="1" gridSize="10" guides="1" tooltips="1" connect="1" arrows="1" fold="1" page="1" pageScale="1" pageWidth="827" pageHeight="1169" math="0" shadow="0">
      <root>
        <mxCell id="0"/>
        <mxCell id="1" parent="0"/>
        <mxCell id="DpBHxD5MmC1SIuMm1yzt-2" style="edgeStyle=orthogonalEdgeStyle;rounded=0;orthogonalLoop=1;jettySize=auto;html=1;" parent="1" target="DpBHxD5MmC1SIuMm1yzt-3" edge="1">
          <mxGeometry relative="1" as="geometry">
            <mxPoint x="310" y="290" as="targetPoint"/>
            <mxPoint x="310" y="200" as="sourcePoint"/>
          </mxGeometry>
        </mxCell>
        <mxCell id="DpBHxD5MmC1SIuMm1yzt-4" style="edgeStyle=orthogonalEdgeStyle;rounded=0;orthogonalLoop=1;jettySize=auto;html=1;" parent="1" source="DpBHxD5MmC1SIuMm1yzt-3" target="DpBHxD5MmC1SIuMm1yzt-5" edge="1">
          <mxGeometry relative="1" as="geometry">
            <mxPoint x="480" y="460" as="targetPoint"/>
          </mxGeometry>
        </mxCell>
        <mxCell id="DpBHxD5MmC1SIuMm1yzt-6" value="否" style="text;html=1;resizable=0;points=[];align=center;verticalAlign=middle;labelBackgroundColor=#ffffff;" parent="DpBHxD5MmC1SIuMm1yzt-4" vertex="1" connectable="0">
          <mxGeometry x="-0.037" y="-53" relative="1" as="geometry">
            <mxPoint x="55" y="53" as="offset"/>
          </mxGeometry>
        </mxCell>
        <mxCell id="DpBHxD5MmC1SIuMm1yzt-7" style="edgeStyle=orthogonalEdgeStyle;rounded=0;orthogonalLoop=1;jettySize=auto;html=1;" parent="1" source="DpBHxD5MmC1SIuMm1yzt-3" edge="1">
          <mxGeometry relative="1" as="geometry">
            <mxPoint x="310" y="420" as="targetPoint"/>
          </mxGeometry>
        </mxCell>
        <mxCell id="DpBHxD5MmC1SIuMm1yzt-3" value="是否在云财务中分配过权限" style="rhombus;whiteSpace=wrap;html=1;" parent="1" vertex="1">
          <mxGeometry x="270" y="250" width="80" height="80" as="geometry"/>
        </mxCell>
        <mxCell id="DpBHxD5MmC1SIuMm1yzt-23" style="edgeStyle=orthogonalEdgeStyle;rounded=0;orthogonalLoop=1;jettySize=auto;html=1;entryX=1;entryY=0.5;entryDx=0;entryDy=0;entryPerimeter=0;exitX=0.5;exitY=1;exitDx=0;exitDy=0;" parent="1" source="DpBHxD5MmC1SIuMm1yzt-5" target="DpBHxD5MmC1SIuMm1yzt-22" edge="1">
          <mxGeometry relative="1" as="geometry"/>
        </mxCell>
        <mxCell id="DpBHxD5MmC1SIuMm1yzt-5" value="提示&quot;请联系管理员分配云财务使用权限&quot;&lt;br&gt;" style="rounded=0;whiteSpace=wrap;html=1;" parent="1" vertex="1">
          <mxGeometry x="420" y="430" width="120" height="60" as="geometry"/>
        </mxCell>
        <mxCell id="DpBHxD5MmC1SIuMm1yzt-9" value="是" style="text;html=1;resizable=0;points=[];autosize=1;align=left;verticalAlign=top;spacingTop=-4;" parent="1" vertex="1">
          <mxGeometry x="303" y="358" width="30" height="20" as="geometry"/>
        </mxCell>
        <mxCell id="DpBHxD5MmC1SIuMm1yzt-11" value="是" style="edgeStyle=orthogonalEdgeStyle;rounded=0;orthogonalLoop=1;jettySize=auto;html=1;" parent="1" source="DpBHxD5MmC1SIuMm1yzt-10" target="DpBHxD5MmC1SIuMm1yzt-12" edge="1">
          <mxGeometry relative="1" as="geometry">
            <mxPoint x="310" y="570" as="targetPoint"/>
          </mxGeometry>
        </mxCell>
        <mxCell id="DpBHxD5MmC1SIuMm1yzt-13" style="edgeStyle=orthogonalEdgeStyle;rounded=0;orthogonalLoop=1;jettySize=auto;html=1;" parent="1" source="DpBHxD5MmC1SIuMm1yzt-10" target="DpBHxD5MmC1SIuMm1yzt-14" edge="1">
          <mxGeometry relative="1" as="geometry">
            <mxPoint x="130" y="540" as="targetPoint"/>
          </mxGeometry>
        </mxCell>
        <mxCell id="DpBHxD5MmC1SIuMm1yzt-15" value="否" style="text;html=1;resizable=0;points=[];align=center;verticalAlign=middle;labelBackgroundColor=#ffffff;" parent="DpBHxD5MmC1SIuMm1yzt-13" vertex="1" connectable="0">
          <mxGeometry x="0.21" y="-2" relative="1" as="geometry">
            <mxPoint as="offset"/>
          </mxGeometry>
        </mxCell>
        <mxCell id="DpBHxD5MmC1SIuMm1yzt-10" value="是否做过密码验证(授权）" style="rhombus;whiteSpace=wrap;html=1;" parent="1" vertex="1">
          <mxGeometry x="270" y="410" width="80" height="80" as="geometry"/>
        </mxCell>
        <mxCell id="DpBHxD5MmC1SIuMm1yzt-21" style="edgeStyle=orthogonalEdgeStyle;rounded=0;orthogonalLoop=1;jettySize=auto;html=1;" parent="1" source="DpBHxD5MmC1SIuMm1yzt-12" target="DpBHxD5MmC1SIuMm1yzt-22" edge="1">
          <mxGeometry relative="1" as="geometry">
            <mxPoint x="310" y="880" as="targetPoint"/>
          </mxGeometry>
        </mxCell>
        <mxCell id="DpBHxD5MmC1SIuMm1yzt-12" value="登录云财务成功" style="rounded=1;whiteSpace=wrap;html=1;" parent="1" vertex="1">
          <mxGeometry x="250" y="710" width="120" height="60" as="geometry"/>
        </mxCell>
        <mxCell id="DpBHxD5MmC1SIuMm1yzt-16" style="edgeStyle=orthogonalEdgeStyle;rounded=0;orthogonalLoop=1;jettySize=auto;html=1;" parent="1" source="DpBHxD5MmC1SIuMm1yzt-14" target="DpBHxD5MmC1SIuMm1yzt-17" edge="1">
          <mxGeometry relative="1" as="geometry">
            <mxPoint x="140" y="620" as="targetPoint"/>
          </mxGeometry>
        </mxCell>
        <mxCell id="DpBHxD5MmC1SIuMm1yzt-14" value="录入密码" style="whiteSpace=wrap;html=1;aspect=fixed;" parent="1" vertex="1">
          <mxGeometry x="110" y="510" width="60" height="60" as="geometry"/>
        </mxCell>
        <mxCell id="DpBHxD5MmC1SIuMm1yzt-18" style="edgeStyle=orthogonalEdgeStyle;rounded=0;orthogonalLoop=1;jettySize=auto;html=1;entryX=0.008;entryY=0.633;entryDx=0;entryDy=0;entryPerimeter=0;exitX=0.5;exitY=1;exitDx=0;exitDy=0;" parent="1" source="DpBHxD5MmC1SIuMm1yzt-17" target="DpBHxD5MmC1SIuMm1yzt-12" edge="1">
          <mxGeometry relative="1" as="geometry"/>
        </mxCell>
        <mxCell id="DpBHxD5MmC1SIuMm1yzt-19" value="正确" style="text;html=1;resizable=0;points=[];align=center;verticalAlign=middle;labelBackgroundColor=#ffffff;" parent="DpBHxD5MmC1SIuMm1yzt-18" vertex="1" connectable="0">
          <mxGeometry x="0.1955" y="2" relative="1" as="geometry">
            <mxPoint as="offset"/>
          </mxGeometry>
        </mxCell>
        <mxCell id="DpBHxD5MmC1SIuMm1yzt-20" value="错误" style="edgeStyle=orthogonalEdgeStyle;rounded=0;orthogonalLoop=1;jettySize=auto;html=1;entryX=0;entryY=0.5;entryDx=0;entryDy=0;exitX=0;exitY=0.5;exitDx=0;exitDy=0;" parent="1" source="DpBHxD5MmC1SIuMm1yzt-17" target="DpBHxD5MmC1SIuMm1yzt-14" edge="1">
          <mxGeometry relative="1" as="geometry"/>
        </mxCell>
        <mxCell id="DpBHxD5MmC1SIuMm1yzt-17" value="验证密码" style="rhombus;whiteSpace=wrap;html=1;" parent="1" vertex="1">
          <mxGeometry x="100" y="600" width="80" height="80" as="geometry"/>
        </mxCell>
        <mxCell id="DpBHxD5MmC1SIuMm1yzt-22" value="结束" style="strokeWidth=2;html=1;shape=mxgraph.flowchart.terminator;whiteSpace=wrap;" parent="1" vertex="1">
          <mxGeometry x="260" y="810" width="100" height="60" as="geometry"/>
        </mxCell>
        <mxCell id="DpBHxD5MmC1SIuMm1yzt-24" value="点“标准财务“" style="strokeWidth=2;html=1;shape=mxgraph.flowchart.terminator;whiteSpace=wrap;" parent="1" vertex="1">
          <mxGeometry x="260" y="140" width="100" height="60" as="geometry"/>
        </mxCell>
      </root>
    </mxGraphModel>
  </diagram>
  <diagram id="aBCYHGFu5XMhylgN3FTu" name="Page-2">
    <mxGraphModel dx="791" dy="378" grid="1" gridSize="10" guides="1" tooltips="1" connect="1" arrows="1" fold="1" page="1" pageScale="1" pageWidth="827" pageHeight="1169" math="0" shadow="0">
      <root>
        <mxCell id="WR9KJZWkcBQFRR8G0NdJ-0"/>
        <mxCell id="WR9KJZWkcBQFRR8G0NdJ-1" parent="WR9KJZWkcBQFRR8G0NdJ-0"/>
        <mxCell id="F9_ioKnyrtnaojyvEA18-0" value="nodejs" style="rounded=0;whiteSpace=wrap;html=1;" vertex="1" parent="WR9KJZWkcBQFRR8G0NdJ-1">
          <mxGeometry x="120" y="140" width="130" height="60" as="geometry"/>
        </mxCell>
        <mxCell id="F9_ioKnyrtnaojyvEA18-1" value="Aprac" style="rounded=0;whiteSpace=wrap;html=1;" vertex="1" parent="WR9KJZWkcBQFRR8G0NdJ-1">
          <mxGeometry x="250" y="140" width="130" height="60" as="geometry"/>
        </mxCell>
        <mxCell id="F9_ioKnyrtnaojyvEA18-2" value="mysql" style="rounded=0;whiteSpace=wrap;html=1;" vertex="1" parent="WR9KJZWkcBQFRR8G0NdJ-1">
          <mxGeometry x="120" y="200" width="260" height="60" as="geometry"/>
        </mxCell>
        <mxCell id="F9_ioKnyrtnaojyvEA18-3" value="linux" style="rounded=0;whiteSpace=wrap;html=1;" vertex="1" parent="WR9KJZWkcBQFRR8G0NdJ-1">
          <mxGeometry x="120" y="260" width="260" height="60" as="geometry"/>
        </mxCell>
      </root>
    </mxGraphModel>
  </diagram>
  <diagram id="VMzlYNDD-KMSbTbEH4R2" name="Page-3">
    <mxGraphModel dx="981" dy="571" grid="1" gridSize="10" guides="1" tooltips="1" connect="1" arrows="1" fold="1" page="1" pageScale="1" pageWidth="2339" pageHeight="3300" math="0" shadow="0">
      <root>
        <mxCell id="YWuLQID-T62jxmNtoZpk-0"/>
        <mxCell id="YWuLQID-T62jxmNtoZpk-1" parent="YWuLQID-T62jxmNtoZpk-0"/>
        <mxCell id="YWuLQID-T62jxmNtoZpk-2" value="JavaScript" style="rounded=0;whiteSpace=wrap;html=1;fontStyle=1" vertex="1" parent="YWuLQID-T62jxmNtoZpk-1">
          <mxGeometry x="400" y="380" width="110" height="60" as="geometry"/>
        </mxCell>
        <mxCell id="YWuLQID-T62jxmNtoZpk-3" value=".Net(C#)" style="rounded=0;whiteSpace=wrap;html=1;fontStyle=1" vertex="1" parent="YWuLQID-T62jxmNtoZpk-1">
          <mxGeometry x="260" y="440" width="250" height="60" as="geometry"/>
        </mxCell>
        <mxCell id="ccIuDA0MVtU8twA8KvAj-0" value="MySQL" style="rounded=0;whiteSpace=wrap;html=1;fontStyle=1" vertex="1" parent="YWuLQID-T62jxmNtoZpk-1">
          <mxGeometry x="260" y="500" width="250" height="70" as="geometry"/>
        </mxCell>
        <mxCell id="ccIuDA0MVtU8twA8KvAj-5" value="" style="shape=curlyBracket;whiteSpace=wrap;html=1;rounded=1;" vertex="1" parent="YWuLQID-T62jxmNtoZpk-1">
          <mxGeometry x="220" y="390" width="20" height="90" as="geometry"/>
        </mxCell>
        <mxCell id="ccIuDA0MVtU8twA8KvAj-10" value="Gspx" style="rounded=0;whiteSpace=wrap;html=1;fontStyle=1" vertex="1" parent="YWuLQID-T62jxmNtoZpk-1">
          <mxGeometry x="260" y="380" width="140" height="60" as="geometry"/>
        </mxCell>
        <mxCell id="ccIuDA0MVtU8twA8KvAj-11" value="JavaScript" style="rounded=0;whiteSpace=wrap;html=1;fontStyle=1" vertex="1" parent="YWuLQID-T62jxmNtoZpk-1">
          <mxGeometry x="1010" y="380" width="110" height="60" as="geometry"/>
        </mxCell>
        <mxCell id="ccIuDA0MVtU8twA8KvAj-12" value="NodeJ(JavaScript）" style="rounded=0;whiteSpace=wrap;html=1;fontStyle=1" vertex="1" parent="YWuLQID-T62jxmNtoZpk-1">
          <mxGeometry x="870" y="440" width="250" height="60" as="geometry"/>
        </mxCell>
        <mxCell id="ccIuDA0MVtU8twA8KvAj-13" value="MySQL" style="rounded=0;whiteSpace=wrap;html=1;fontStyle=1" vertex="1" parent="YWuLQID-T62jxmNtoZpk-1">
          <mxGeometry x="870" y="500" width="250" height="70" as="geometry"/>
        </mxCell>
        <mxCell id="ccIuDA0MVtU8twA8KvAj-14" value="" style="shape=curlyBracket;whiteSpace=wrap;html=1;rounded=1;" vertex="1" parent="YWuLQID-T62jxmNtoZpk-1">
          <mxGeometry x="830" y="390" width="20" height="90" as="geometry"/>
        </mxCell>
        <mxCell id="ccIuDA0MVtU8twA8KvAj-15" value="Gspx" style="rounded=0;whiteSpace=wrap;html=1;fontStyle=1" vertex="1" parent="YWuLQID-T62jxmNtoZpk-1">
          <mxGeometry x="870" y="380" width="140" height="60" as="geometry"/>
        </mxCell>
        <mxCell id="ccIuDA0MVtU8twA8KvAj-18" value="JavaScript" style="rounded=0;whiteSpace=wrap;html=1;" vertex="1" parent="YWuLQID-T62jxmNtoZpk-1">
          <mxGeometry x="400" y="690" width="110" height="60" as="geometry"/>
        </mxCell>
        <mxCell id="ccIuDA0MVtU8twA8KvAj-19" value="Java" style="rounded=0;whiteSpace=wrap;html=1;" vertex="1" parent="YWuLQID-T62jxmNtoZpk-1">
          <mxGeometry x="260" y="750" width="250" height="60" as="geometry"/>
        </mxCell>
        <mxCell id="ccIuDA0MVtU8twA8KvAj-20" value="PostgreSql&lt;br&gt;" style="rounded=0;whiteSpace=wrap;html=1;" vertex="1" parent="YWuLQID-T62jxmNtoZpk-1">
          <mxGeometry x="260" y="810" width="250" height="80" as="geometry"/>
        </mxCell>
        <mxCell id="ccIuDA0MVtU8twA8KvAj-21" value="" style="shape=curlyBracket;whiteSpace=wrap;html=1;rounded=1;" vertex="1" parent="YWuLQID-T62jxmNtoZpk-1">
          <mxGeometry x="210" y="700" width="30" height="90" as="geometry"/>
        </mxCell>
        <mxCell id="ccIuDA0MVtU8twA8KvAj-22" value="Gspx" style="rounded=0;whiteSpace=wrap;html=1;" vertex="1" parent="YWuLQID-T62jxmNtoZpk-1">
          <mxGeometry x="260" y="690" width="140" height="60" as="geometry"/>
        </mxCell>
        <mxCell id="ccIuDA0MVtU8twA8KvAj-26" value="Web服务器&lt;br&gt;Windows" style="shape=ext;double=1;rounded=0;whiteSpace=wrap;html=1;fillColor=#f8cecc;strokeColor=#b85450;fontStyle=1" vertex="1" parent="YWuLQID-T62jxmNtoZpk-1">
          <mxGeometry x="510" y="440" width="70" height="60" as="geometry"/>
        </mxCell>
        <mxCell id="ccIuDA0MVtU8twA8KvAj-27" value="数据库&lt;br&gt;Linux" style="shape=ext;double=1;rounded=0;whiteSpace=wrap;html=1;fillColor=#e1d5e7;strokeColor=#9673a6;direction=west;fontStyle=1" vertex="1" parent="YWuLQID-T62jxmNtoZpk-1">
          <mxGeometry x="510" y="500" width="70" height="70" as="geometry"/>
        </mxCell>
        <mxCell id="ccIuDA0MVtU8twA8KvAj-29" value="Carpa3" style="text;strokeColor=none;fillColor=none;html=1;fontSize=24;fontStyle=1;verticalAlign=middle;align=center;" vertex="1" parent="YWuLQID-T62jxmNtoZpk-1">
          <mxGeometry x="115" y="415" width="100" height="40" as="geometry"/>
        </mxCell>
        <mxCell id="ccIuDA0MVtU8twA8KvAj-30" value="Aprac" style="text;strokeColor=none;fillColor=none;html=1;fontSize=24;fontStyle=1;verticalAlign=middle;align=center;" vertex="1" parent="YWuLQID-T62jxmNtoZpk-1">
          <mxGeometry x="740" y="420" width="100" height="40" as="geometry"/>
        </mxCell>
        <mxCell id="ccIuDA0MVtU8twA8KvAj-31" value="Aprac" style="text;strokeColor=none;fillColor=none;html=1;fontSize=24;fontStyle=1;verticalAlign=middle;align=center;" vertex="1" parent="YWuLQID-T62jxmNtoZpk-1">
          <mxGeometry x="115" y="720" width="100" height="45" as="geometry"/>
        </mxCell>
        <mxCell id="ccIuDA0MVtU8twA8KvAj-32" value="浏览器" style="shape=ext;double=1;rounded=0;whiteSpace=wrap;html=1;fillColor=#dae8fc;strokeColor=#6c8ebf;direction=south;fontStyle=1" vertex="1" parent="YWuLQID-T62jxmNtoZpk-1">
          <mxGeometry x="510" y="380" width="70" height="60" as="geometry"/>
        </mxCell>
        <mxCell id="ccIuDA0MVtU8twA8KvAj-33" value="Web服务器&lt;br&gt;Windows" style="shape=ext;double=1;rounded=0;whiteSpace=wrap;html=1;fillColor=#e1d5e7;strokeColor=#9673a6;fontStyle=1" vertex="1" parent="YWuLQID-T62jxmNtoZpk-1">
          <mxGeometry x="1121" y="440" width="70" height="60" as="geometry"/>
        </mxCell>
        <mxCell id="ccIuDA0MVtU8twA8KvAj-34" value="数据库&lt;br&gt;Linux" style="shape=ext;double=1;rounded=0;whiteSpace=wrap;html=1;fillColor=#e1d5e7;strokeColor=#9673a6;direction=west;fontStyle=1" vertex="1" parent="YWuLQID-T62jxmNtoZpk-1">
          <mxGeometry x="1121" y="500" width="70" height="70" as="geometry"/>
        </mxCell>
        <mxCell id="ccIuDA0MVtU8twA8KvAj-35" value="浏览器" style="shape=ext;double=1;rounded=0;whiteSpace=wrap;html=1;fillColor=#dae8fc;strokeColor=#6c8ebf;direction=south;fontStyle=1" vertex="1" parent="YWuLQID-T62jxmNtoZpk-1">
          <mxGeometry x="1121" y="380" width="70" height="60" as="geometry"/>
        </mxCell>
      </root>
    </mxGraphModel>
  </diagram>
</mxfile>
